<?xml version="1.0" standalone="no"?>
<!DOCTYPE svg PUBLIC "-//W3C//DTD SVG 20010904//EN"
 "http://www.w3.org/TR/2001/REC-SVG-20010904/DTD/svg10.dtd">
<svg version="1.0" xmlns="http://www.w3.org/2000/svg"
 width="1280.000000pt" height="1160.000000pt" viewBox="0 0 1280.000000 1160.000000"
 preserveAspectRatio="xMidYMid meet">
<g transform="translate(0.000000,1160.000000) scale(0.100000,-0.100000)"
fill="#000000" stroke="none">
<path d="M6195 11588 c-434 -48 -637 -85 -929 -168 -667 -189 -1315 -516
-1817 -917 -152 -122 -392 -357 -493 -483 -204 -256 -340 -524 -390 -771 -33
-159 -31 -220 13 -579 44 -350 135 -1092 196 -1582 19 -159 51 -416 70 -572
19 -156 35 -288 35 -294 0 -5 -106 -164 -236 -353 -130 -189 -239 -351 -241
-359 -4 -14 1215 -1709 1268 -1765 16 -16 94 -33 416 -92 225 -41 401 -78 408
-85 7 -7 38 -150 69 -318 31 -167 62 -310 69 -316 6 -7 255 -149 552 -315
l540 -304 675 0 675 0 540 304 c297 166 546 308 552 315 7 6 38 149 69 316 31
168 62 311 69 318 7 7 183 44 408 85 322 59 400 76 416 92 53 56 1272 1751
1268 1765 -2 8 -111 170 -241 359 -130 189 -236 348 -236 353 0 6 16 137 35
291 19 155 50 413 70 572 66 536 155 1257 197 1599 40 325 41 343 30 445 -53
469 -370 949 -917 1386 -669 535 -1639 943 -2480 1044 -368 44 -482 49 -660
29z m-1545 -4941 c643 -167 1111 -416 1221 -651 31 -67 32 -70 26 -179 -7
-138 -34 -243 -92 -362 -144 -290 -445 -522 -856 -660 -258 -86 -499 -127
-754 -129 l-161 -1 -76 38 c-101 49 -163 118 -228 252 -100 205 -147 452 -166
870 -19 426 80 663 329 785 138 67 260 90 452 85 115 -3 150 -8 305 -48z
m3985 43 c114 -17 185 -38 275 -82 245 -119 345 -359 326 -783 -18 -415 -66
-666 -166 -870 -65 -134 -127 -203 -228 -252 l-76 -38 -161 1 c-430 3 -887
134 -1205 345 -122 81 -290 247 -354 351 -96 155 -146 322 -146 488 0 74 4 93
30 149 105 222 564 473 1155 631 257 69 386 83 550 60z m-1893 -2326 c180
-318 327 -586 327 -595 1 -17 -257 -218 -291 -227 -11 -3 -85 35 -198 103
l-180 107 -180 -107 c-113 -68 -187 -106 -198 -103 -30 8 -292 209 -292 224 0
11 595 1081 647 1162 8 13 20 22 26 19 7 -2 159 -264 339 -583z"/>
<path d="M845 6729 c-361 -47 -664 -213 -730 -399 -32 -90 -11 -269 44 -384
16 -34 63 -108 105 -166 122 -169 157 -283 158 -510 0 -192 -34 -297 -134
-417 -167 -200 -194 -239 -228 -339 -22 -62 -60 -262 -60 -312 l0 -30 568 -5
c557 -6 676 -11 957 -43 408 -45 880 -171 1445 -383 102 -38 186 -68 188 -66
5 5 14 -8 -600 835 l-557 765 -87 44 c-478 243 -671 541 -818 1261 l-31 155
-75 1 c-41 1 -106 -2 -145 -7z"/>
<path d="M11736 6729 c-3 -8 -17 -72 -31 -144 -104 -521 -235 -815 -457 -1020
-86 -80 -239 -184 -361 -245 l-88 -45 -557 -765 c-614 -843 -605 -830 -600
-835 2 -2 86 28 188 66 565 212 1037 338 1445 383 281 32 400 37 958 43 l567
5 0 24 c0 37 -21 161 -41 249 -32 137 -65 190 -244 405 -103 123 -137 227
-137 420 1 227 36 341 158 510 42 58 89 132 105 166 55 115 76 294 44 385 -73
206 -437 383 -835 406 -89 5 -110 3 -114 -8z"/>
<path d="M4645 2583 c8 -27 37 -131 65 -233 28 -102 53 -192 56 -202 4 -14
265 -218 279 -218 3 0 5 107 5 238 l0 237 -199 113 c-109 61 -203 112 -209
112 -7 0 -7 -15 3 -47z"/>
<path d="M7948 2517 l-198 -112 0 -237 c0 -131 2 -238 5 -238 14 0 275 204
279 218 3 10 28 100 56 202 28 102 57 206 65 233 10 35 11 47 2 47 -7 0 -101
-51 -209 -113z"/>
<path d="M3975 2491 c-514 -264 -1100 -449 -1645 -520 -143 -19 -192 -23 -373
-30 -212 -10 -272 -25 -380 -98 -82 -55 -148 -133 -194 -228 -34 -73 -63 -183
-63 -247 0 -33 3 -38 28 -43 15 -4 83 -24 151 -46 303 -95 530 -258 676 -483
70 -107 105 -178 177 -360 121 -305 169 -368 320 -421 58 -20 105 -19 201 6
200 51 282 120 557 474 183 235 281 346 416 474 221 209 530 409 827 537 48
20 87 41 87 46 0 4 -88 74 -195 154 l-195 146 -18 62 c-10 33 -56 197 -103
363 -46 167 -88 303 -94 302 -5 0 -86 -40 -180 -88z"/>
<path d="M8551 2277 c-47 -166 -93 -330 -103 -363 l-18 -62 -195 -146 c-107
-80 -195 -150 -195 -154 0 -5 39 -26 88 -46 296 -128 602 -326 826 -537 135
-127 232 -239 416 -475 274 -352 357 -422 557 -473 96 -25 143 -26 201 -6 151
53 193 108 315 410 77 191 112 263 182 371 146 225 373 388 676 483 68 22 136
42 152 46 23 5 27 10 27 40 0 66 -31 181 -70 261 -65 133 -183 239 -320 285
-52 17 -101 23 -247 30 -181 7 -230 11 -373 30 -545 71 -1122 253 -1648 521
-95 48 -176 88 -180 88 -4 0 -45 -136 -91 -303z"/>
<path d="M5220 2067 l0 -233 208 -111 c114 -61 210 -109 215 -106 9 6 9 454
-1 469 -6 10 -404 214 -417 214 -3 0 -5 -105 -5 -233z"/>
<path d="M7365 2198 c-110 -55 -203 -106 -207 -112 -10 -15 -10 -463 0 -469 4
-3 100 45 215 106 l207 111 0 233 c0 128 -3 233 -7 232 -5 0 -98 -45 -208
-101z"/>
<path d="M5815 2057 c-3 -7 -4 -118 -3 -247 l3 -235 250 0 250 0 0 245 0 245
-248 3 c-195 2 -249 0 -252 -11z"/>
<path d="M6485 2057 c-3 -7 -4 -118 -3 -247 l3 -235 250 0 250 0 0 245 0 245
-248 3 c-195 2 -249 0 -252 -11z"/>
</g>
</svg>
