<!-- Generated by IcoMoon.io -->
<svg version="1.1" xmlns="http://www.w3.org/2000/svg" width="32" height="32" viewBox="0 0 32 32">
<title>menu</title>
<path d="M2.14 2.087h27.719c1.182 0 2.14 0.958 2.14 2.14s-0.958 2.14-2.14 2.14h-27.719c-1.182 0-2.14-0.958-2.14-2.14s0.958-2.14 2.14-2.14z"></path>
<path d="M2.14 13.681h27.719c1.182 0 2.14 0.958 2.14 2.14s-0.958 2.14-2.14 2.14h-27.719c-1.182 0-2.14-0.958-2.14-2.14s0.958-2.14 2.14-2.14z"></path>
<path d="M2.14 25.275h27.719c1.182 0 2.14 0.958 2.14 2.14s-0.958 2.14-2.14 2.14h-27.719c-1.182 0-2.14-0.958-2.14-2.14s0.958-2.14 2.14-2.14z"></path>
</svg>
