<!-- Generated by IcoMoon.io -->
<svg version="1.1" xmlns="http://www.w3.org/2000/svg" width="48" height="48" viewBox="0 0 48 48">
<title>tag</title>
<path d="M34.001 11.499c0 1.38 1.12 2.5 2.5 2.5s2.5-1.12 2.5-2.5-1.12-2.5-2.5-2.5-2.5 1.12-2.5 2.5zM16.521 46.839c1.54 1.551 4.040 1.551 5.59 0l24.44-24.28c0.979-0.979 1.47-2.27 1.45-3.56v-14.040c0-2.74-2.221-4.96-4.96-4.96h-14.040c-1.29-0.021-2.58 0.47-3.561 1.45l-24.279 24.441c-1.551 1.549-1.551 4.049 0 5.59l15.36 15.359zM30.001 11.499c0-3.59 2.91-6.5 6.5-6.5s6.5 2.91 6.5 6.5-2.91 6.5-6.5 6.5-6.5-2.91-6.5-6.5z"></path>
</svg>
